<svg version="1.1" id="Layer_1" xmlns="http://www.w3.org/2000/svg" xmlns:xlink="http://www.w3.org/1999/xlink" x="0px" y="0px"
	 width="100%" viewBox="0 0 1175 1171" enable-background="new 0 0 1175 1171" xml:space="preserve">
<path fill="#000000" opacity="1.000000" stroke="none" 
	d="
M661.000000,1172.000000 
	C440.666656,1172.000000 220.833328,1172.000000 1.000000,1172.000000 
	C1.000000,781.666687 1.000000,391.333344 1.000000,1.000000 
	C392.666656,1.000000 784.333313,1.000000 1176.000000,1.000000 
	C1176.000000,391.333344 1176.000000,781.666687 1176.000000,1172.000000 
	C1004.500000,1172.000000 833.000000,1172.000000 661.000000,1172.000000 
M542.976624,171.125931 
	C542.976624,167.190582 542.976624,163.255234 542.976624,159.001495 
	C540.607117,159.001495 538.801147,159.001495 536.995178,159.001495 
	C396.612579,159.000992 256.229980,159.000000 115.847404,159.006042 
	C114.185242,159.006119 112.523087,159.096939 110.153709,159.584061 
	C110.102440,160.913696 109.997971,162.243744 110.008293,163.572906 
	C110.091263,174.257156 108.739464,172.644058 119.189232,173.070801 
	C130.371338,173.527451 141.705826,173.568527 152.658264,175.542114 
	C168.390503,178.377029 183.190994,184.362274 197.095505,192.507584 
	C220.153458,206.015015 240.103149,222.891708 255.005798,245.254868 
	C264.854980,260.034668 274.321198,275.069244 284.000214,289.962891 
	C292.615845,303.220215 301.349670,316.400970 309.923828,329.684937 
	C332.276764,364.316345 354.599152,398.967651 376.840820,433.670502 
	C378.879639,436.851654 380.509918,436.439423 383.143188,434.461243 
	C389.787598,429.469666 396.494019,424.534729 403.426483,419.957123 
	C427.570374,404.014709 452.861206,390.113251 479.878876,379.717834 
	C501.533600,371.385925 523.539551,363.961273 545.439880,356.277100 
	C550.946411,354.345032 551.181396,354.142639 548.047363,349.196136 
	C545.520325,345.207581 543.156311,341.114258 540.580994,337.157867 
	C522.446167,309.297943 504.678497,281.187439 485.997955,253.697571 
	C468.702911,228.246582 477.952881,198.438950 500.078003,182.349472 
	C509.157532,175.746811 519.137695,172.648666 530.341980,172.932358 
	C534.498047,173.037598 538.673706,172.372452 542.976624,171.125931 
M201.974899,1043.460083 
	C204.865372,1047.023193 207.600311,1050.726929 210.672806,1054.125488 
	C225.352036,1070.362549 243.312439,1081.613770 263.367950,1090.270996 
	C284.336792,1099.322510 305.957245,1101.109375 327.974182,1097.761719 
	C352.580719,1094.020386 373.305389,1081.697998 391.378662,1065.002563 
	C405.599823,1051.865479 416.875610,1036.307495 425.388855,1018.960815 
	C431.116821,1007.289551 435.892975,995.145508 440.949188,983.151550 
	C447.771149,966.968811 454.412598,950.710083 461.206909,934.515564 
	C467.373993,919.816040 473.738434,905.198486 479.801086,890.456482 
	C481.413055,886.536804 483.183411,885.541077 487.600616,886.580688 
	C494.088226,888.107605 500.924561,889.044739 507.566498,888.828186 
	C519.371704,888.443359 531.254517,887.707581 542.903259,885.852478 
	C563.389832,882.590027 582.214783,874.525452 599.848450,863.666321 
	C615.867798,853.801270 630.344177,842.058716 642.636841,827.786072 
	C648.623108,820.835510 654.769592,813.901672 659.799011,806.271790 
	C672.972351,786.286682 682.878113,764.730164 687.827820,741.185791 
	C689.436279,733.535156 690.342529,725.683960 690.868652,717.877197 
	C691.220398,712.658325 690.287415,707.358337 690.012939,702.090271 
	C689.632446,694.787842 690.078125,687.352356 688.845154,680.202271 
	C685.947571,663.398682 679.976746,647.630920 670.720825,633.187500 
	C663.044312,621.208496 654.418518,610.010071 642.894470,601.507385 
	C632.497009,593.835876 621.707153,586.696045 610.912048,579.197937 
	C625.356750,544.878784 640.294922,509.387299 655.204529,473.963562 
	C674.705872,474.692657 692.848450,470.753967 710.709778,465.085907 
	C734.344788,457.585571 755.989441,446.031586 776.784851,432.732117 
	C797.011047,419.796722 815.555176,404.654358 832.980530,388.263977 
	C844.664612,377.273895 855.940857,365.644562 865.973816,353.155853 
	C879.141602,336.765045 891.509521,319.646027 903.111694,302.106171 
	C915.718628,283.047485 925.666870,262.456024 933.032898,240.753738 
	C938.538086,224.533661 944.493652,208.440460 944.317993,190.824707 
	C944.253418,184.354843 946.357239,177.891022 946.882324,171.376923 
	C947.182800,167.649658 946.649902,163.754044 945.887390,160.059021 
	C941.634277,139.448837 925.228210,122.066628 905.786011,117.132294 
	C900.912292,115.895393 895.613770,116.341560 890.512024,115.991554 
	C886.587280,115.722298 882.389038,114.379379 878.796387,115.334480 
	C870.047119,117.660439 861.311768,120.441925 853.045227,124.109344 
	C820.336792,138.620392 792.799866,160.194565 770.045776,187.641891 
	C757.643982,202.601547 745.332275,217.823700 734.814087,234.111847 
	C720.065979,256.950195 706.513428,280.609802 693.408203,304.445251 
	C681.603455,325.915253 671.073547,348.086945 660.021790,369.969604 
	C658.032410,373.908600 655.314880,376.141541 650.614563,375.070923 
	C649.346375,374.782043 647.939270,374.869934 646.628479,375.038361 
	C636.581238,376.329010 626.490540,377.382172 616.513306,379.092072 
	C604.022827,381.232666 591.545898,383.578583 579.207458,386.454987 
	C550.217041,393.213470 521.937561,402.146362 494.422394,413.684998 
	C470.737183,423.617523 448.127228,435.442566 426.454132,449.104828 
	C404.064301,463.218842 384.764038,480.895630 367.519684,500.928619 
	C354.349945,516.228149 343.243988,532.898865 333.776306,550.667969 
	C324.951324,567.230774 318.113647,584.599609 312.646057,602.581177 
	C306.280731,623.515320 303.345978,644.966797 302.134674,666.668701 
	C301.648010,675.387573 302.180695,684.242554 303.115845,692.942444 
	C304.439880,705.260071 305.700195,717.697205 308.553711,729.711243 
	C312.767395,747.452209 319.544983,764.319641 328.591461,780.329651 
	C342.669983,805.245117 361.569733,825.659485 384.273254,842.794312 
	C399.735474,854.464050 416.554626,863.712830 434.429657,871.091003 
	C440.248901,873.492981 446.107483,875.799683 452.294220,878.289246 
	C450.259186,883.100037 448.372864,887.561279 446.484985,892.021912 
	C440.969910,905.053162 435.109772,917.951172 430.016418,931.145203 
	C421.589691,952.974182 415.396332,975.794373 402.883636,995.810974 
	C395.032257,1008.370850 386.615387,1020.739136 377.100769,1032.057251 
	C364.620605,1046.902954 348.829163,1057.907593 330.895050,1065.546021 
	C317.943329,1071.062256 304.247803,1073.861816 290.306488,1074.785889 
	C285.272552,1075.119507 280.065491,1073.057007 274.955963,1071.998413 
	C249.440613,1066.712158 229.852905,1053.564209 219.613220,1028.900879 
	C216.952042,1022.491211 214.064682,1015.558289 216.613861,1008.012817 
	C224.730209,1012.535583 232.796677,1015.842102 241.897110,1017.196350 
	C263.143982,1020.357849 282.251526,1015.698364 297.926941,1001.272827 
	C314.632141,985.899658 321.937256,966.522339 319.133545,943.353577 
	C317.173676,927.158203 310.875763,913.579895 299.030151,902.563049 
	C280.367126,885.205872 258.571533,880.531921 234.146149,886.931030 
	C213.736191,892.278137 200.233200,905.832397 191.093002,924.059570 
	C185.377289,935.457703 182.286453,947.679382 180.785706,960.485596 
	C179.247238,973.613708 180.210999,986.410828 182.647842,999.216431 
	C185.682312,1015.162476 192.935211,1029.335815 201.974899,1043.460083 
M833.501953,789.977478 
	C827.120667,779.942627 820.788757,769.876038 814.348694,759.879150 
	C796.789124,732.621582 779.199890,705.383057 761.592407,678.156433 
	C742.657532,648.877380 723.710510,619.606201 704.725830,590.359436 
	C693.988159,573.817505 683.179993,557.321045 672.347229,540.841248 
	C671.530151,539.598206 670.260254,538.652832 668.925293,537.287231 
	C665.341370,545.809937 662.417542,553.405640 658.949341,560.744019 
	C657.167847,564.513611 658.597656,566.614929 661.304932,568.712952 
	C664.276550,571.015930 667.390137,573.169556 670.150818,575.705261 
	C689.364685,593.353760 704.821167,613.685852 715.039673,637.894409 
	C722.781982,656.236755 727.525330,675.324829 728.841675,695.069702 
	C730.093506,713.847351 728.407715,732.527161 724.068359,750.966614 
	C718.764954,773.502808 709.869385,794.471985 698.271423,814.434875 
	C687.641296,832.731873 674.365234,848.898499 659.564697,863.895447 
	C657.442322,866.045959 656.089539,867.626709 658.310730,871.012573 
	C676.810852,899.213074 695.139771,927.527161 713.331116,955.928162 
	C718.880249,964.591492 722.461182,974.265015 721.800659,984.612671 
	C721.093689,995.688538 716.886719,1005.966248 709.709229,1014.440613 
	C699.941711,1025.973022 687.985779,1034.018433 672.037903,1034.000977 
	C666.440735,1033.994873 660.843506,1034.000000 655.399658,1034.000000 
	C655.399658,1039.415161 655.399658,1044.141235 655.399658,1049.000000 
	C657.128113,1049.000000 658.456970,1049.000000 659.785767,1049.000000 
	C801.276550,1049.000000 942.767273,1049.000000 1084.258057,1048.999634 
	C1085.091309,1048.999634 1085.924805,1049.006592 1086.757812,1048.991699 
	C1090.742554,1048.920410 1090.239502,1046.141968 1089.755127,1043.681274 
	C1089.147949,1040.597046 1088.215576,1037.576904 1087.335205,1034.188965 
	C1077.833374,1032.700317 1067.224854,1034.828369 1056.531372,1033.246948 
	C1042.690308,1031.200073 1029.428223,1027.601685 1016.832886,1021.870605 
	C984.601990,1007.204956 959.190796,984.483215 939.991211,954.830200 
	C914.575867,915.577087 889.317322,876.222473 863.981262,836.918030 
	C854.005066,821.441528 844.001648,805.982544 833.501953,789.977478 
z"/>
<path fill="#4CFF00" opacity="1.000000" stroke="none" 
	d="
M201.717255,1043.201050 
	C192.935211,1029.335815 185.682312,1015.162476 182.647842,999.216431 
	C180.210999,986.410828 179.247238,973.613708 180.785706,960.485596 
	C182.286453,947.679382 185.377289,935.457703 191.093002,924.059570 
	C200.233200,905.832397 213.736191,892.278137 234.146149,886.931030 
	C258.571533,880.531921 280.367126,885.205872 299.030151,902.563049 
	C310.875763,913.579895 317.173676,927.158203 319.133545,943.353577 
	C321.937256,966.522339 314.632141,985.899658 297.926941,1001.272827 
	C282.251526,1015.698364 263.143982,1020.357849 241.897110,1017.196350 
	C232.796677,1015.842102 224.730209,1012.535583 216.613861,1008.012817 
	C214.064682,1015.558289 216.952042,1022.491211 219.613220,1028.900879 
	C229.852905,1053.564209 249.440613,1066.712158 274.955963,1071.998413 
	C280.065491,1073.057007 285.272552,1075.119507 290.306488,1074.785889 
	C304.247803,1073.861816 317.943329,1071.062256 330.895050,1065.546021 
	C348.829163,1057.907593 364.620605,1046.902954 377.100769,1032.057251 
	C386.615387,1020.739136 395.032257,1008.370850 402.883636,995.810974 
	C415.396332,975.794373 421.589691,952.974182 430.016418,931.145203 
	C435.109772,917.951172 440.969910,905.053162 446.484985,892.021912 
	C448.372864,887.561279 450.259186,883.100037 452.294220,878.289246 
	C446.107483,875.799683 440.248901,873.492981 434.429657,871.091003 
	C416.554626,863.712830 399.735474,854.464050 384.273254,842.794312 
	C361.569733,825.659485 342.669983,805.245117 328.591461,780.329651 
	C319.544983,764.319641 312.767395,747.452209 308.553711,729.711243 
	C305.700195,717.697205 304.439880,705.260071 303.115845,692.942444 
	C302.180695,684.242554 301.648010,675.387573 302.134674,666.668701 
	C303.345978,644.966797 306.280731,623.515320 312.646057,602.581177 
	C318.113647,584.599609 324.951324,567.230774 333.776306,550.667969 
	C343.243988,532.898865 354.349945,516.228149 367.519684,500.928619 
	C384.764038,480.895630 404.064301,463.218842 426.454132,449.104828 
	C448.127228,435.442566 470.737183,423.617523 494.422394,413.684998 
	C521.937561,402.146362 550.217041,393.213470 579.207458,386.454987 
	C591.545898,383.578583 604.022827,381.232666 616.513306,379.092072 
	C626.490540,377.382172 636.581238,376.329010 646.628479,375.038361 
	C647.939270,374.869934 649.346375,374.782043 650.614563,375.070923 
	C655.314880,376.141541 658.032410,373.908600 660.021790,369.969604 
	C671.073547,348.086945 681.603455,325.915253 693.408203,304.445251 
	C706.513428,280.609802 720.065979,256.950195 734.814087,234.111847 
	C745.332275,217.823700 757.643982,202.601547 770.045776,187.641891 
	C792.799866,160.194565 820.336792,138.620392 853.045227,124.109344 
	C861.311768,120.441925 870.047119,117.660439 878.796387,115.334480 
	C882.389038,114.379379 886.587280,115.722298 890.512024,115.991554 
	C895.613770,116.341560 900.912292,115.895393 905.786011,117.132294 
	C925.228210,122.066628 941.634277,139.448837 945.887390,160.059021 
	C946.649902,163.754044 947.182800,167.649658 946.882324,171.376923 
	C946.357239,177.891022 944.253418,184.354843 944.317993,190.824707 
	C944.493652,208.440460 938.538086,224.533661 933.032898,240.753738 
	C925.666870,262.456024 915.718628,283.047485 903.111694,302.106171 
	C891.509521,319.646027 879.141602,336.765045 865.973816,353.155853 
	C855.940857,365.644562 844.664612,377.273895 832.980530,388.263977 
	C815.555176,404.654358 797.011047,419.796722 776.784851,432.732117 
	C755.989441,446.031586 734.344788,457.585571 710.709778,465.085907 
	C692.848450,470.753967 674.705872,474.692657 655.204529,473.963562 
	C640.294922,509.387299 625.356750,544.878784 610.912048,579.197937 
	C621.707153,586.696045 632.497009,593.835876 642.894470,601.507385 
	C654.418518,610.010071 663.044312,621.208496 670.720825,633.187500 
	C679.976746,647.630920 685.947571,663.398682 688.845154,680.202271 
	C690.078125,687.352356 689.632446,694.787842 690.012939,702.090271 
	C690.287415,707.358337 691.220398,712.658325 690.868652,717.877197 
	C690.342529,725.683960 689.436279,733.535156 687.827820,741.185791 
	C682.878113,764.730164 672.972351,786.286682 659.799011,806.271790 
	C654.769592,813.901672 648.623108,820.835510 642.636841,827.786072 
	C630.344177,842.058716 615.867798,853.801270 599.848450,863.666321 
	C582.214783,874.525452 563.389832,882.590027 542.903259,885.852478 
	C531.254517,887.707581 519.371704,888.443359 507.566498,888.828186 
	C500.924561,889.044739 494.088226,888.107605 487.600616,886.580688 
	C483.183411,885.541077 481.413055,886.536804 479.801086,890.456482 
	C473.738434,905.198486 467.373993,919.816040 461.206909,934.515564 
	C454.412598,950.710083 447.771149,966.968811 440.949188,983.151550 
	C435.892975,995.145508 431.116821,1007.289551 425.388855,1018.960815 
	C416.875610,1036.307495 405.599823,1051.865479 391.378662,1065.002563 
	C373.305389,1081.697998 352.580719,1094.020386 327.974182,1097.761719 
	C305.957245,1101.109375 284.336792,1099.322510 263.367950,1090.270996 
	C243.312439,1081.613770 225.352036,1070.362549 210.672806,1054.125488 
	C207.600311,1050.726929 204.865372,1047.023193 201.717255,1043.201050 
M590.738770,474.002472 
	C588.805664,474.334625 586.882080,474.743591 584.937805,474.986237 
	C573.903198,476.363220 562.728516,477.022125 551.853149,479.188538 
	C527.164124,484.106598 502.715088,490.125854 479.105377,499.058289 
	C454.081024,508.525970 429.385010,518.717041 407.360046,534.284607 
	C392.219482,544.986267 378.780334,557.591675 367.440521,572.233459 
	C352.438782,591.603394 341.038757,612.935608 334.688660,636.735168 
	C331.014618,650.505066 327.292053,664.351685 328.106415,678.771912 
	C328.517792,686.056519 326.603516,693.290466 328.821442,700.675537 
	C330.676758,706.853394 330.650269,713.569092 332.057007,719.913574 
	C338.925934,750.892456 353.886780,777.755615 374.886353,801.231384 
	C387.768372,815.632385 402.551941,827.943604 419.122131,838.079651 
	C431.413666,845.598572 444.219055,851.878723 457.867523,856.515869 
	C460.525330,857.418823 461.858246,856.811768 462.883392,854.491211 
	C463.543884,852.996155 464.294586,851.540649 464.942474,850.040466 
	C473.394073,830.472046 481.785889,810.877563 490.292664,791.333191 
	C497.439667,774.912903 504.785187,758.578918 511.920471,742.153564 
	C521.450134,720.216309 530.845337,698.220581 540.330139,676.263672 
	C545.486938,664.325745 550.709595,652.416321 555.892761,640.516541 
	C537.806702,634.503296 519.625671,632.884094 501.364746,637.388062 
	C476.122955,643.613892 455.630890,656.796570 441.830414,679.554504 
	C434.625549,691.435791 433.202393,705.045044 429.057068,717.836609 
	C432.385925,724.628113 429.186646,731.814575 430.533966,739.033203 
	C433.120453,752.890991 436.888580,766.183472 441.971985,779.231873 
	C442.507538,780.606567 442.044006,782.370544 442.044006,783.953918 
	C430.832458,774.995483 424.645355,763.568665 420.159637,751.451538 
	C413.513092,733.497620 410.814789,714.927917 412.777740,695.562927 
	C414.021423,683.294006 416.028229,671.329712 419.762848,659.651062 
	C425.483337,641.762268 434.288300,625.589050 446.317596,611.043091 
	C461.626587,592.531250 479.953461,578.502197 502.917877,570.995972 
	C514.381470,567.249023 525.899963,564.257263 538.318481,565.805481 
	C544.612671,566.590210 551.255127,564.513733 557.567566,565.237000 
	C567.010620,566.318970 576.301636,568.728821 586.268677,570.694397 
	C600.305664,538.440613 614.442200,505.957916 628.350098,474.000732 
	C616.093994,474.000732 603.886414,474.000732 590.738770,474.002472 
M900.926636,225.820129 
	C900.283875,221.969650 899.593872,218.126358 899.007996,214.267258 
	C897.620605,205.129166 889.194824,195.566711 880.589172,194.082291 
	C867.628601,191.846649 854.684937,192.544632 841.912476,195.557770 
	C818.635010,201.049118 799.409790,213.756302 782.557007,230.148865 
	C775.269958,237.236877 768.346924,244.933517 762.519287,253.238388 
	C750.458374,270.426117 738.915100,288.002228 727.787720,305.811493 
	C719.763428,318.654419 712.681458,332.091370 705.325684,345.344635 
	C701.815613,351.668854 698.646240,358.182129 694.665283,365.880798 
	C700.770935,365.155090 705.620056,364.623352 710.456360,363.993500 
	C717.732849,363.045807 725.036133,362.238983 732.265381,361.005066 
	C759.733276,356.316620 785.738892,347.194122 810.621277,334.756470 
	C837.847107,321.147491 862.736511,304.522461 881.532043,279.983582 
	C893.583252,264.249847 900.634338,246.720230 900.926636,225.820129 
M532.070557,864.330872 
	C533.090576,863.885925 534.070374,863.246399 535.136780,863.025879 
	C547.787659,860.409424 560.278137,856.825439 570.795532,849.318176 
	C577.799683,844.318604 583.469971,837.367615 589.424927,830.998108 
	C602.840576,816.648010 613.322754,800.297913 620.386597,781.999268 
	C627.104431,764.597046 630.643555,746.501526 627.930542,727.752319 
	C625.742798,712.633911 620.997742,698.225159 612.621826,685.399902 
	C604.215210,672.527466 593.727844,661.463257 580.128357,652.340942 
	C550.336670,723.143982 520.745605,793.470337 490.795624,864.649536 
	C493.443115,864.793762 495.338409,864.834534 497.219971,865.017090 
	C499.127625,865.202148 501.014221,865.635864 502.923340,865.768250 
	C506.657501,866.027161 510.415344,866.446655 514.137146,866.264282 
	C519.896912,865.982178 525.634705,865.251038 532.070557,864.330872 
z"/>
<path fill="#4CFF00" opacity="1.000000" stroke="none" 
	d="
M833.756226,790.246582 
	C844.001648,805.982544 854.005066,821.441528 863.981262,836.918030 
	C889.317322,876.222473 914.575867,915.577087 939.991211,954.830200 
	C959.190796,984.483215 984.601990,1007.204956 1016.832886,1021.870605 
	C1029.428223,1027.601685 1042.690308,1031.200073 1056.531372,1033.246948 
	C1067.224854,1034.828369 1077.833374,1032.700317 1087.335205,1034.188965 
	C1088.215576,1037.576904 1089.147949,1040.597046 1089.755127,1043.681274 
	C1090.239502,1046.141968 1090.742554,1048.920410 1086.757812,1048.991699 
	C1085.924805,1049.006592 1085.091309,1048.999634 1084.258057,1048.999634 
	C942.767273,1049.000000 801.276550,1049.000000 659.785767,1049.000000 
	C658.456970,1049.000000 657.128113,1049.000000 655.399658,1049.000000 
	C655.399658,1044.141235 655.399658,1039.415161 655.399658,1034.000000 
	C660.843506,1034.000000 666.440735,1033.994873 672.037903,1034.000977 
	C687.985779,1034.018433 699.941711,1025.973022 709.709229,1014.440613 
	C716.886719,1005.966248 721.093689,995.688538 721.800659,984.612671 
	C722.461182,974.265015 718.880249,964.591492 713.331116,955.928162 
	C695.139771,927.527161 676.810852,899.213074 658.310730,871.012573 
	C656.089539,867.626709 657.442322,866.045959 659.564697,863.895447 
	C674.365234,848.898499 687.641296,832.731873 698.271423,814.434875 
	C709.869385,794.471985 718.764954,773.502808 724.068359,750.966614 
	C728.407715,732.527161 730.093506,713.847351 728.841675,695.069702 
	C727.525330,675.324829 722.781982,656.236755 715.039673,637.894409 
	C704.821167,613.685852 689.364685,593.353760 670.150818,575.705261 
	C667.390137,573.169556 664.276550,571.015930 661.304932,568.712952 
	C658.597656,566.614929 657.167847,564.513611 658.949341,560.744019 
	C662.417542,553.405640 665.341370,545.809937 668.925293,537.287231 
	C670.260254,538.652832 671.530151,539.598206 672.347229,540.841248 
	C683.179993,557.321045 693.988159,573.817505 704.725830,590.359436 
	C723.710510,619.606201 742.657532,648.877380 761.592407,678.156433 
	C779.199890,705.383057 796.789124,732.621582 814.348694,759.879150 
	C820.788757,769.876038 827.120667,779.942627 833.756226,790.246582 
z"/>
<path fill="#4CFF00" opacity="1.000000" stroke="none" 
	d="
M542.840332,172.058624 
	C538.673706,172.372452 534.498047,173.037598 530.341980,172.932358 
	C519.137695,172.648666 509.157532,175.746811 500.078003,182.349472 
	C477.952881,198.438950 468.702911,228.246582 485.997955,253.697571 
	C504.678497,281.187439 522.446167,309.297943 540.580994,337.157867 
	C543.156311,341.114258 545.520325,345.207581 548.047363,349.196136 
	C551.181396,354.142639 550.946411,354.345032 545.439880,356.277100 
	C523.539551,363.961273 501.533600,371.385925 479.878876,379.717834 
	C452.861206,390.113251 427.570374,404.014709 403.426483,419.957123 
	C396.494019,424.534729 389.787598,429.469666 383.143188,434.461243 
	C380.509918,436.439423 378.879639,436.851654 376.840820,433.670502 
	C354.599152,398.967651 332.276764,364.316345 309.923828,329.684937 
	C301.349670,316.400970 292.615845,303.220215 284.000214,289.962891 
	C274.321198,275.069244 264.854980,260.034668 255.005798,245.254868 
	C240.103149,222.891708 220.153458,206.015015 197.095505,192.507584 
	C183.190994,184.362274 168.390503,178.377029 152.658264,175.542114 
	C141.705826,173.568527 130.371338,173.527451 119.189232,173.070801 
	C108.739464,172.644058 110.091263,174.257156 110.008293,163.572906 
	C109.997971,162.243744 110.102440,160.913696 110.872597,159.584152 
	C114.076889,159.722626 116.562271,159.981766 119.047691,159.982101 
	C257.137238,160.001053 395.226746,159.998291 533.316284,159.998611 
	C534.815369,159.998611 536.317444,160.073700 537.812988,160.003860 
	C540.811279,159.863815 541.920410,161.306107 541.970154,164.224701 
	C542.014648,166.840210 542.531738,169.447647 542.840332,172.058624 
z"/>
<path fill="#5FD82C" opacity="1.000000" stroke="none" 
	d="
M542.908447,171.592285 
	C542.531738,169.447647 542.014648,166.840210 541.970154,164.224701 
	C541.920410,161.306107 540.811279,159.863815 537.812988,160.003860 
	C536.317444,160.073700 534.815369,159.998611 533.316284,159.998611 
	C395.226746,159.998291 257.137238,160.001053 119.047691,159.982101 
	C116.562271,159.981766 114.076889,159.722626 111.226204,159.364838 
	C112.523087,159.096939 114.185242,159.006119 115.847404,159.006042 
	C256.229980,159.000000 396.612579,159.000992 536.995178,159.001495 
	C538.801147,159.001495 540.607117,159.001495 542.976624,159.001495 
	C542.976624,163.255234 542.976624,167.190582 542.908447,171.592285 
z"/>
<path fill="#000000" opacity="1.000000" stroke="none" 
	d="
M591.208801,474.001587 
	C603.886414,474.000732 616.093994,474.000732 628.350098,474.000732 
	C614.442200,505.957916 600.305664,538.440613 586.268677,570.694397 
	C576.301636,568.728821 567.010620,566.318970 557.567566,565.237000 
	C551.255127,564.513733 544.612671,566.590210 538.318481,565.805481 
	C525.899963,564.257263 514.381470,567.249023 502.917877,570.995972 
	C479.953461,578.502197 461.626587,592.531250 446.317596,611.043091 
	C434.288300,625.589050 425.483337,641.762268 419.762848,659.651062 
	C416.028229,671.329712 414.021423,683.294006 412.777740,695.562927 
	C410.814789,714.927917 413.513092,733.497620 420.159637,751.451538 
	C424.645355,763.568665 430.832458,774.995483 442.044006,783.953918 
	C442.044006,782.370544 442.507538,780.606567 441.971985,779.231873 
	C436.888580,766.183472 433.120453,752.890991 430.533966,739.033203 
	C429.186646,731.814575 432.385925,724.628113 429.057068,717.836609 
	C433.202393,705.045044 434.625549,691.435791 441.830414,679.554504 
	C455.630890,656.796570 476.122955,643.613892 501.364746,637.388062 
	C519.625671,632.884094 537.806702,634.503296 555.892761,640.516541 
	C550.709595,652.416321 545.486938,664.325745 540.330139,676.263672 
	C530.845337,698.220581 521.450134,720.216309 511.920471,742.153564 
	C504.785187,758.578918 497.439667,774.912903 490.292664,791.333191 
	C481.785889,810.877563 473.394073,830.472046 464.942474,850.040466 
	C464.294586,851.540649 463.543884,852.996155 462.883392,854.491211 
	C461.858246,856.811768 460.525330,857.418823 457.867523,856.515869 
	C444.219055,851.878723 431.413666,845.598572 419.122131,838.079651 
	C402.551941,827.943604 387.768372,815.632385 374.886353,801.231384 
	C353.886780,777.755615 338.925934,750.892456 332.057007,719.913574 
	C330.650269,713.569092 330.676758,706.853394 328.821442,700.675537 
	C326.603516,693.290466 328.517792,686.056519 328.106415,678.771912 
	C327.292053,664.351685 331.014618,650.505066 334.688660,636.735168 
	C341.038757,612.935608 352.438782,591.603394 367.440521,572.233459 
	C378.780334,557.591675 392.219482,544.986267 407.360046,534.284607 
	C429.385010,518.717041 454.081024,508.525970 479.105377,499.058289 
	C502.715088,490.125854 527.164124,484.106598 551.853149,479.188538 
	C562.728516,477.022125 573.903198,476.363220 584.937805,474.986237 
	C586.882080,474.743591 588.805664,474.334625 591.208801,474.001587 
z"/>
<path fill="#000000" opacity="1.000000" stroke="none" 
	d="
M900.957153,226.274170 
	C900.634338,246.720230 893.583252,264.249847 881.532043,279.983582 
	C862.736511,304.522461 837.847107,321.147491 810.621277,334.756470 
	C785.738892,347.194122 759.733276,356.316620 732.265381,361.005066 
	C725.036133,362.238983 717.732849,363.045807 710.456360,363.993500 
	C705.620056,364.623352 700.770935,365.155090 694.665283,365.880798 
	C698.646240,358.182129 701.815613,351.668854 705.325684,345.344635 
	C712.681458,332.091370 719.763428,318.654419 727.787720,305.811493 
	C738.915100,288.002228 750.458374,270.426117 762.519287,253.238388 
	C768.346924,244.933517 775.269958,237.236877 782.557007,230.148865 
	C799.409790,213.756302 818.635010,201.049118 841.912476,195.557770 
	C854.684937,192.544632 867.628601,191.846649 880.589172,194.082291 
	C889.194824,195.566711 897.620605,205.129166 899.007996,214.267258 
	C899.593872,218.126358 900.283875,221.969650 900.957153,226.274170 
z"/>
<path fill="#000000" opacity="1.000000" stroke="none" 
	d="
M531.726196,864.520569 
	C525.634705,865.251038 519.896912,865.982178 514.137146,866.264282 
	C510.415344,866.446655 506.657501,866.027161 502.923340,865.768250 
	C501.014221,865.635864 499.127625,865.202148 497.219971,865.017090 
	C495.338409,864.834534 493.443115,864.793762 490.795624,864.649536 
	C520.745605,793.470337 550.336670,723.143982 580.128357,652.340942 
	C593.727844,661.463257 604.215210,672.527466 612.621826,685.399902 
	C620.997742,698.225159 625.742798,712.633911 627.930542,727.752319 
	C630.643555,746.501526 627.104431,764.597046 620.386597,781.999268 
	C613.322754,800.297913 602.840576,816.648010 589.424927,830.998108 
	C583.469971,837.367615 577.799683,844.318604 570.795532,849.318176 
	C560.278137,856.825439 547.787659,860.409424 535.136780,863.025879 
	C534.070374,863.246399 533.090576,863.885925 531.726196,864.520569 
z"/>
</svg>